<svg xmlns="http://www.w3.org/2000/svg" width="40" height="40" viewBox="0 0 40 40">
  <path id="Exclusion_2" data-name="Exclusion 2" d="M-7940-8360a19.867,19.867,0,0,1-7.785-1.571,19.952,19.952,0,0,1-6.357-4.286,19.909,19.909,0,0,1-4.286-6.357A19.883,19.883,0,0,1-7960-8380a19.882,19.882,0,0,1,1.571-7.784,19.93,19.93,0,0,1,4.286-6.357,19.937,19.937,0,0,1,6.357-4.286A19.879,19.879,0,0,1-7940-8400a19.884,19.884,0,0,1,7.786,1.572,19.937,19.937,0,0,1,6.357,4.286,19.93,19.93,0,0,1,4.286,6.357A19.882,19.882,0,0,1-7920-8380a19.883,19.883,0,0,1-1.571,7.785,19.909,19.909,0,0,1-4.286,6.357,19.952,19.952,0,0,1-6.357,4.286A19.871,19.871,0,0,1-7940-8360Zm-12.3-32.5a2.558,2.558,0,0,0-2.324,2.669v17.192c0,1.311.944,2.249,2.658,2.644l11.968,2.243,11.968-2.25c1.713-.393,2.656-1.331,2.656-2.644v-17.186a2.558,2.558,0,0,0-2.322-2.67,2.148,2.148,0,0,0-.334.026l-11.968,2.252-11.968-2.252A2.262,2.262,0,0,0-7952.3-8392.5Zm13.639,22.1h0v-17.191l10.631-2.249v17.191l-10.63,2.25Zm-2.673,0h0l-10.63-2.25v-17.186l10.631,2.252v17.183Z" transform="translate(7960 8400.001)" fill="#960"/>
</svg>
