<svg xmlns="http://www.w3.org/2000/svg" width="40" height="40" viewBox="0 0 40 40">
  <path id="Exclusion_1" data-name="Exclusion 1" d="M-7940-8360a19.867,19.867,0,0,1-7.785-1.571,19.952,19.952,0,0,1-6.357-4.286,19.909,19.909,0,0,1-4.286-6.357A19.883,19.883,0,0,1-7960-8380a19.882,19.882,0,0,1,1.571-7.784,19.93,19.93,0,0,1,4.286-6.357,19.937,19.937,0,0,1,6.357-4.286A19.879,19.879,0,0,1-7940-8400a19.884,19.884,0,0,1,7.786,1.572,19.937,19.937,0,0,1,6.357,4.286,19.93,19.93,0,0,1,4.286,6.357A19.882,19.882,0,0,1-7920-8380a19.883,19.883,0,0,1-1.571,7.785,19.909,19.909,0,0,1-4.286,6.357,19.952,19.952,0,0,1-6.357,4.286A19.871,19.871,0,0,1-7940-8360Zm-13-11.979h0a14.525,14.525,0,0,0,7.875,2.3,14.766,14.766,0,0,0,6.259-1.327,13.789,13.789,0,0,0,4.574-3.428,15.09,15.09,0,0,0,3.759-9.838c0-.219,0-.445-.017-.666a10.965,10.965,0,0,0,2.574-2.654,10.25,10.25,0,0,1-2.956.795,5.107,5.107,0,0,0,2.256-2.827,10.135,10.135,0,0,1-3.255,1.239,5.145,5.145,0,0,0-3.749-1.619,5.134,5.134,0,0,0-5.127,5.13,5.735,5.735,0,0,0,.126,1.174,14.613,14.613,0,0,1-10.574-5.367,5.072,5.072,0,0,0-.7,2.589,5.123,5.123,0,0,0,2.287,4.271,5.16,5.16,0,0,1-2.319-.651v.063a5.144,5.144,0,0,0,1.175,3.273,5.155,5.155,0,0,0,2.938,1.761,5.529,5.529,0,0,1-1.349.175,6.265,6.265,0,0,1-.97-.08,5.138,5.138,0,0,0,4.8,3.557,10.225,10.225,0,0,1-6.367,2.192A10.359,10.359,0,0,1-7953-8371.979Z" transform="translate(7960 8400.001)" fill="#40a3f8"/>
</svg>
