<svg xmlns="http://www.w3.org/2000/svg" width="17" height="22.1" viewBox="0 0 17 22.1">
  <g id="Icon_ionic-ios-download" data-name="Icon ionic-ios-download" transform="translate(-6.75 -3.375)">
    <path id="Path_1549" data-name="Path 1549" d="M21.625,10.125H15.941v9.557l2.545-2.507a.691.691,0,0,1,.972.983l-3.719,3.666a.7.7,0,0,1-.483.2.659.659,0,0,1-.266-.053.738.738,0,0,1-.218-.143h0l-3.719-3.666a.691.691,0,0,1,.972-.983l2.545,2.507V10.125h-5.7A2.131,2.131,0,0,0,6.75,12.25V25a2.131,2.131,0,0,0,2.125,2.125h12.75A2.131,2.131,0,0,0,23.75,25V12.25A2.131,2.131,0,0,0,21.625,10.125Z" transform="translate(0 -1.65)" fill="#5637b8"/>
    <path id="Path_1550" data-name="Path 1550" d="M18.467,4.066a.691.691,0,1,0-1.381,0V8.475h1.381Z" transform="translate(-2.527)" fill="#5637b8"/>
  </g>
</svg>
