<svg xmlns="http://www.w3.org/2000/svg" width="45.542" height="54" viewBox="0 0 45.542 54"><g transform="translate(-40.097)"><g transform="translate(40.097)"><g transform="translate(0)"><path d="M83.037,7.157H78.482V2.6a2.61,2.61,0,0,0-2.6-2.6H42.7a2.61,2.61,0,0,0-2.6,2.6V44.241a2.61,2.61,0,0,0,2.6,2.6h4.554V51.4a2.61,2.61,0,0,0,2.6,2.6h22.12a7.593,7.593,0,0,0,4.5-1.783l7.27-6.843a6.91,6.91,0,0,0,1.9-4.386V9.759A2.61,2.61,0,0,0,83.037,7.157Zm-35.783,2.6V44.892H42.7a.659.659,0,0,1-.651-.651V2.6a.659.659,0,0,1,.651-.651H75.881a.66.66,0,0,1,.651.651V7.157H49.856A2.61,2.61,0,0,0,47.253,9.759ZM82.4,43.953,75.135,50.8a3.453,3.453,0,0,1-.557.408V45.217A1.631,1.631,0,0,1,76.2,43.59h6.509A2.731,2.731,0,0,1,82.4,43.953Zm1.281-2.965a3.034,3.034,0,0,1-.089.651H76.2a3.586,3.586,0,0,0-3.578,3.578v6.753a3.4,3.4,0,0,1-.651.079H49.856a.659.659,0,0,1-.651-.651V9.759a.659.659,0,0,1,.651-.651H83.037a.659.659,0,0,1,.651.651Z" transform="translate(-40.097)" fill="#5637b8"/></g></g><g transform="translate(56.037 16.265)"><path d="M211.078,154.216H192.211a.976.976,0,1,0,0,1.952h18.867a.976.976,0,0,0,0-1.952Z" transform="translate(-191.235 -154.216)" fill="#5637b8"/></g><g transform="translate(56.037 29.277)"><path d="M211.078,277.59H192.211a.976.976,0,1,0,0,1.952h18.867a.976.976,0,0,0,0-1.952Z" transform="translate(-191.235 -277.59)" fill="#5637b8"/></g><g transform="translate(56.037 35.783)"><path d="M202.621,339.277h-10.41a.976.976,0,1,0,0,1.952h10.41a.976.976,0,0,0,0-1.952Z" transform="translate(-191.236 -339.277)" fill="#5637b8"/></g><g transform="translate(56.037 22.771)"><path d="M211.078,215.9H192.211a.976.976,0,1,0,0,1.952h18.867a.976.976,0,1,0,0-1.952Z" transform="translate(-191.235 -215.903)" fill="#5637b8"/></g></g></svg>