<svg xmlns="http://www.w3.org/2000/svg" width="24.75" height="36.001" viewBox="0 0 24.75 36.001"><path d="M6.754,31.946a2.251,2.251,0,0,0,.377,1.244L8.333,35a2.249,2.249,0,0,0,1.873,1h4.339a2.249,2.249,0,0,0,1.873-1l1.2-1.806A2.249,2.249,0,0,0,18,31.946l0-2.7H6.751l0,2.7ZM0,12.375a12.306,12.306,0,0,0,3.063,8.141,20.206,20.206,0,0,1,3.671,6.43c0,.018,0,.037.008.055H18.008c0-.018,0-.036.008-.055a20.206,20.206,0,0,1,3.671-6.43A12.372,12.372,0,1,0,0,12.375ZM12.375,6.75A5.632,5.632,0,0,0,6.75,12.375a1.125,1.125,0,0,1-2.25,0A7.884,7.884,0,0,1,12.375,4.5a1.125,1.125,0,0,1,0,2.25Z" fill="#960"/></svg>