<svg xmlns="http://www.w3.org/2000/svg" width="17.264" height="17.256" viewBox="0 0 17.264 17.256">
  <g id="Icon_ionic-ios-link" data-name="Icon ionic-ios-link" transform="translate(-3.375 -3.375)">
    <path id="Path_1553" data-name="Path 1553" d="M13,19.486l-.05,0a.686.686,0,0,0-.4.187l-2.68,2.68A3.021,3.021,0,0,1,5.6,18.084l2.846-2.846a3,3,0,0,1,.473-.386,3.049,3.049,0,0,1,.614-.311,2.9,2.9,0,0,1,.622-.153,2.941,2.941,0,0,1,.423-.029c.058,0,.116,0,.191.008a3.012,3.012,0,0,1,1.941.871,2.974,2.974,0,0,1,.709,1.132.653.653,0,0,0,.8.419s.008,0,.012,0,.008,0,.008,0a.648.648,0,0,0,.436-.792,3.759,3.759,0,0,0-1.02-1.7,4.367,4.367,0,0,0-2.389-1.215c-.079-.012-.158-.025-.236-.033a4.281,4.281,0,0,0-.46-.025c-.108,0-.216,0-.319.012a4.184,4.184,0,0,0-.672.1c-.046.008-.087.021-.133.033a4.315,4.315,0,0,0-.809.3,4.261,4.261,0,0,0-1.149.825L4.64,17.138a4.376,4.376,0,0,0-1.265,3.09,4.362,4.362,0,0,0,7.442,3.082L13.525,20.6A.657.657,0,0,0,13,19.486Z" transform="translate(0 -3.953)" fill="#fff"/>
    <path id="Path_1554" data-name="Path 1554" d="M23.5,4.648a4.371,4.371,0,0,0-6.168,0L14.686,7.291A.667.667,0,0,0,15.1,8.427a.674.674,0,0,0,.527-.191L18.278,5.6A3.021,3.021,0,0,1,22.55,9.871L19.7,12.716a3,3,0,0,1-.473.386,3.049,3.049,0,0,1-.614.311,2.9,2.9,0,0,1-.622.153,2.941,2.941,0,0,1-.423.029c-.058,0-.12,0-.191-.008a2.981,2.981,0,0,1-2.622-1.929.663.663,0,0,0-.792-.407.67.67,0,0,0-.469.85,3.789,3.789,0,0,0,.983,1.556h0l.008.008a4.367,4.367,0,0,0,2.626,1.249,4.281,4.281,0,0,0,.46.025q.162,0,.324-.012a4.742,4.742,0,0,0,.8-.133,4.315,4.315,0,0,0,.809-.3,4.261,4.261,0,0,0,1.149-.825L23.5,10.821A4.366,4.366,0,0,0,23.5,4.648Z" transform="translate(-4.139)" fill="#fff"/>
  </g>
</svg>
