<svg id="facebook_1_" data-name="facebook (1)" xmlns="http://www.w3.org/2000/svg" width="40" height="40" viewBox="0 0 40 40">
  <path id="Path_91" data-name="Path 91" d="M297.277,508.668q-3.2.521-6.422.961Q294.078,509.189,297.277,508.668Zm0,0" transform="translate(-271.538 -472)" fill="#996600"/>
  <path id="Path_92" data-name="Path 92" d="M302.4,507.793c-1.02.188-2.039.359-3.059.535C300.359,508.152,301.378,507.98,302.4,507.793Zm0,0" transform="translate(-277.612 -472)" fill="#996600"/>
  <path id="Path_93" data-name="Path 93" d="M285.137,510.34q-3.744.422-7.527.742Q281.389,510.766,285.137,510.34Zm0,0" transform="translate(-259.74 -472)" fill="#996600"/>
  <path id="Path_94" data-name="Path 94" d="M290.055,509.738c-1.2.16-2.406.309-3.609.449C287.649,510.047,288.856,509.9,290.055,509.738Zm0,0" transform="translate(-265.942 -472)" fill="#996600"/>
  <path id="Path_95" data-name="Path 95" d="M309.367,506.41c-.9.191-1.8.383-2.7.566C307.566,506.793,308.469,506.6,309.367,506.41Zm0,0" transform="translate(-284.206 -472)" fill="#996600"/>
  <path id="Path_96" data-name="Path 96" d="M326.664,502.113c-.727.207-1.453.4-2.18.605C325.211,502.515,325.937,502.32,326.664,502.113Zm0,0" transform="translate(-300.413 -472)" fill="#996600"/>
  <path id="Path_97" data-name="Path 97" d="M321.434,503.543c-.789.207-1.582.418-2.375.617Q320.248,503.861,321.434,503.543Zm0,0" transform="translate(-295.503 -472)" fill="#996600"/>
  <path id="Path_98" data-name="Path 98" d="M314.59,505.254c-.836.2-1.68.379-2.523.566C312.91,505.633,313.754,505.449,314.59,505.254Zm0,0" transform="translate(-289.111 -472)" fill="#996600"/>
  <path id="Path_99" data-name="Path 99" d="M277.527,511.09q-2.021.17-4.047.3Q275.507,511.26,277.527,511.09Zm0,0" transform="translate(-254.123 -472)" fill="#996600"/>
  <path id="Path_100" data-name="Path 100" d="M40,20A20,20,0,1,0,20,40c.117,0,.234,0,.352,0V24.426h-4.3V19.419h4.3V15.734c0-4.274,2.609-6.6,6.421-6.6a35.371,35.371,0,0,1,3.852.2V13.8H28c-2.074,0-2.476.986-2.476,2.432v3.189H30.48l-.646,5.008H25.521v14.8A20.011,20.011,0,0,0,40,20Zm0,0" fill="#996600"/>
  <path id="Path_101" data-name="Path 101" d="M272.914,511.43q-4,.258-8.023.4Q268.916,511.694,272.914,511.43Zm0,0" transform="translate(-248.084 -472)" fill="#996600"/>
  <path id="Path_102" data-name="Path 102" d="M264.754,511.836q-2.121.07-4.25.105Q262.631,511.906,264.754,511.836Zm0,0" transform="translate(-242.162 -472)" fill="#996600"/>
</svg>
