<svg id="youtube-symbol" xmlns="http://www.w3.org/2000/svg" width="40" height="40" viewBox="0 0 40 40">
  <g id="Group_106" data-name="Group 106">
    <path id="Path_108" data-name="Path 108" d="M39.969,46.1l8.978-4.655-8.978-4.684Z" transform="translate(-23.613 -21.72)" fill="#996600"/>
    <path id="Path_109" data-name="Path 109" d="M20,0A20,20,0,1,0,40,20,20,20,0,0,0,20,0ZM33.627,26.676a3.568,3.568,0,0,1-3.053,2.774A94.71,94.71,0,0,1,20,29.842,94.747,94.747,0,0,1,9.423,29.45a3.565,3.565,0,0,1-3.051-2.774A30.234,30.234,0,0,1,5.879,20a30.232,30.232,0,0,1,.5-6.676,3.567,3.567,0,0,1,3.051-2.775A94.844,94.844,0,0,1,20,10.158a94.8,94.8,0,0,1,10.574.391,3.567,3.567,0,0,1,3.053,2.775A30.23,30.23,0,0,1,34.121,20,30.233,30.233,0,0,1,33.627,26.676Z" fill="#996600"/>
  </g>
</svg>
