<?xml version="1.0" standalone="no"?>
<!DOCTYPE svg PUBLIC "-//W3C//DTD SVG 20010904//EN"
 "http://www.w3.org/TR/2001/REC-SVG-20010904/DTD/svg10.dtd">
<svg version="1.0" xmlns="http://www.w3.org/2000/svg"
 width="965.000000pt" height="965.000000pt" viewBox="0 0 965.000000 965.000000"
 preserveAspectRatio="xMidYMid meet">
<metadata>
Created by potrace 1.14, written by Peter Selinger 2001-2017
</metadata>
<g transform="translate(0.000000,965.000000) scale(0.100000,-0.100000)"
fill="#000000" stroke="none">
<path d="M4700 9507 l-74 -132 -1 -2509 c0 -1664 -3 -2510 -10 -2512 -5 -2
-100 -5 -210 -6 -187 -3 -203 -5 -245 -27 -25 -13 -55 -33 -67 -44 l-23 -20 0
1827 0 1828 -39 72 c-45 82 -111 200 -115 204 -2 1 -38 -59 -81 -135 l-78
-138 0 -2099 0 -2099 -117 -201 c-64 -111 -121 -209 -127 -219 -8 -16 -38 30
-185 285 -97 166 -186 321 -199 343 l-23 40 -1 1345 -1 1345 -67 119 c-37 65
-67 122 -67 126 0 4 -6 12 -13 18 -10 9 -21 -4 -50 -56 -20 -37 -55 -100 -77
-139 l-40 -73 0 -1152 0 -1153 -172 2 c-95 2 -239 3 -320 3 l-148 0 0 587 0
586 -45 81 c-25 45 -50 88 -55 96 -6 8 -19 33 -31 54 -26 48 -21 53 -116 -118
l-66 -120 0 -583 0 -583 -51 -1 c-28 0 -75 0 -104 1 -113 3 -208 -49 -263
-144 -16 -28 -34 -58 -39 -66 -37 -58 -320 -554 -320 -561 0 -5 -4 -9 -10 -9
-5 0 -10 -5 -10 -10 0 -6 -37 -75 -83 -153 -107 -183 -106 -183 -104 -269 l2
-73 219 -380 c120 -209 238 -413 262 -452 24 -40 44 -75 44 -78 0 -12 71 -113
96 -137 57 -53 107 -68 240 -68 l121 0 0 -217 c0 -248 15 -197 -121 -406 -40
-62 -75 -117 -78 -122 -4 -7 54 -10 180 -10 l186 0 73 113 73 113 0 264 0 265
320 0 320 0 0 -218 0 -219 -96 -148 c-53 -82 -98 -154 -100 -160 -3 -7 50 -10
178 -10 l183 0 37 55 c21 30 54 82 75 115 l37 60 1 455 1 455 87 149 c48 82
87 153 87 158 0 4 5 8 10 8 6 0 10 4 10 9 0 5 39 76 87 158 47 81 91 158 97
170 6 13 14 23 18 23 6 0 28 -36 78 -125 12 -22 57 -101 100 -175 l78 -135 -2
-535 -1 -535 -98 -147 c-53 -82 -97 -151 -97 -155 0 -4 81 -8 180 -8 l181 0
39 58 c22 32 40 59 40 61 0 2 16 27 35 56 l35 52 0 311 0 311 28 -26 c62 -59
80 -63 312 -68 l215 -5 0 -370 c-1 -203 2 -372 6 -375 4 -3 74 -5 156 -5 l148
0 2 350 c1 193 2 362 2 378 l1 27 230 0 c207 0 235 2 285 21 30 11 55 23 55
27 0 4 11 14 23 24 l23 16 0 -306 -1 -306 64 -101 c35 -55 70 -107 77 -115 11
-13 43 -16 188 -15 96 0 178 4 182 7 3 4 -3 20 -15 35 -12 15 -58 84 -102 152
l-79 124 0 533 0 533 71 123 c39 68 75 130 80 138 5 8 28 48 51 89 24 40 47
73 52 73 8 0 125 -195 224 -372 14 -25 59 -103 100 -173 l75 -129 1 -456 1
-457 72 -110 72 -111 183 2 c101 1 184 2 185 3 1 0 -44 72 -100 159 l-102 158
0 214 0 215 320 3 320 2 0 -262 0 -262 73 -115 74 -116 184 0 c122 0 183 3
180 10 -2 6 -47 77 -100 158 l-96 147 0 219 0 219 133 4 c143 4 165 10 231 69
20 17 41 42 49 57 7 15 65 117 129 227 64 110 125 217 137 238 12 21 28 48 35
60 8 12 25 41 38 63 12 23 70 123 127 224 l104 182 1 71 c1 88 -5 102 -140
325 -24 40 -44 75 -44 77 0 3 -13 26 -29 52 -56 92 -82 138 -88 156 -3 9 -9
17 -14 17 -5 0 -9 4 -9 10 0 5 -22 47 -49 92 -27 46 -59 101 -71 123 -103 185
-162 273 -197 298 -34 23 -104 57 -118 57 -3 0 -54 0 -115 0 l-110 0 0 583 0
582 -76 138 c-42 75 -79 135 -84 132 -4 -3 -23 -31 -41 -63 -17 -31 -41 -73
-52 -92 -69 -121 -62 -51 -62 -695 l0 -580 -315 -5 c-173 -3 -317 -2 -320 2
-3 3 -5 523 -5 1155 l0 1148 -39 70 c-21 39 -57 101 -78 139 l-40 68 -77 -133
-76 -134 -1 -1345 -1 -1346 -29 -52 c-45 -81 -304 -531 -339 -590 l-32 -52
-49 82 c-26 46 -55 97 -64 113 -9 17 -44 78 -78 136 l-62 105 0 2098 0 2097
-34 62 c-18 34 -46 85 -62 112 -16 28 -36 62 -43 78 -8 15 -18 24 -22 20 -4
-5 -36 -59 -71 -121 -34 -62 -67 -121 -73 -131 -7 -11 -10 -644 -10 -1843 l1
-1826 -42 30 c-73 52 -99 57 -343 57 -123 0 -226 3 -229 6 -3 2 -6 1136 -6
2517 l-1 2513 -36 60 c-20 33 -53 90 -73 128 -20 37 -40 67 -44 67 -4 0 -41
-60 -82 -133z"/>
<path d="M7408 1088 c-2 -6 -2 -23 0 -38 3 -24 8 -27 35 -26 29 1 32 5 35 39
3 36 2 37 -32 37 -19 0 -36 -5 -38 -12z"/>
<path d="M2736 1069 c-33 -26 -33 -53 0 -101 26 -37 26 -40 28 -230 l1 -193
40 -1 c22 0 46 1 53 4 13 4 17 63 5 61 -26 -4 -29 10 -29 177 l-1 175 -27 28
c-33 34 -24 44 40 43 24 -1 44 2 45 6 6 53 10 50 -62 51 -53 0 -72 -4 -93 -20z"/>
<path d="M3157 1070 c-33 -26 -35 -58 -4 -96 21 -27 22 -40 27 -229 l5 -200
40 -1 c22 0 45 1 52 3 12 5 16 63 4 61 -28 -3 -30 6 -30 145 1 204 1 201 -26
233 -31 36 -20 48 38 46 40 -2 45 0 49 23 6 32 6 32 -67 34 -49 2 -66 -2 -88
-19z"/>
<path d="M3754 993 c1 -15 -9 -18 -69 -18 -63 0 -70 -2 -70 -20 0 -19 8 -20
108 -23 l107 -3 0 41 c0 40 0 40 -39 40 -31 0 -38 -4 -37 -17z"/>
<path d="M7329 1006 c-1 -3 -2 -11 -3 -18 0 -7 -13 -13 -29 -13 -33 -2 -41 -9
-34 -30 5 -11 22 -15 72 -15 59 0 65 -2 57 -17 -7 -12 -25 -17 -71 -17 -33 -1
-61 -4 -61 -8 0 -56 -2 -54 43 -53 42 2 96 -11 98 -23 0 -4 2 -14 4 -22 2 -11
-8 -15 -40 -17 -82 -2 -126 -43 -128 -117 -2 -70 34 -113 93 -112 34 1 37 49
4 71 -45 29 -16 95 41 95 l32 0 0 -57 c1 -116 -1 -111 36 -109 l32 2 1 136 c2
102 -2 144 -13 164 -12 25 -12 30 1 40 18 13 21 34 5 34 -8 0 -8 4 0 14 7 8
11 27 9 43 -2 23 -8 29 -35 31 -25 2 -33 -1 -38 -18 -7 -21 -20 -19 -20 3 0
12 -54 24 -56 13z"/>
<path d="M4023 910 c-4 -13 -16 -16 -69 -13 l-64 4 0 -35 c0 -33 1 -34 38 -31
64 4 118 -20 109 -50 -2 -5 -20 -10 -41 -11 -87 -5 -126 -45 -126 -128 0 -67
55 -119 105 -99 22 8 18 51 -4 63 -29 15 -35 47 -16 76 13 20 23 25 48 22 l32
-3 0 -70 c0 -82 6 -95 43 -91 l27 3 3 132 c2 104 -1 139 -13 164 -14 29 -14
32 7 54 16 17 18 23 7 24 -71 5 -82 4 -86 -11z"/>
<path d="M4762 911 c-9 -10 -34 -14 -73 -13 -59 1 -59 1 -59 -29 0 -16 3 -30
8 -30 4 -1 23 -3 42 -4 64 -3 87 -13 92 -39 4 -21 1 -24 -21 -23 -94 4 -141
-36 -141 -123 0 -43 5 -56 28 -79 36 -37 83 -37 89 -1 2 16 -4 30 -18 41 -47
35 -21 104 38 97 l28 -3 0 -80 1 -80 34 0 35 1 3 133 c2 104 -1 139 -13 164
-13 27 -13 32 0 47 8 9 15 21 15 26 0 15 -72 10 -88 -5z"/>
<path d="M5758 922 c-10 -2 -18 -8 -18 -13 0 -5 -17 -9 -37 -9 -49 0 -98 -30
-109 -67 -8 -22 -11 -221 -5 -279 1 -7 16 -11 34 -10 l32 2 3 70 c3 69 3 71
27 66 23 -4 25 -1 25 32 0 20 -4 37 -10 37 -5 1 -16 2 -22 3 -7 0 -14 16 -16
34 -3 27 1 34 23 42 18 7 33 7 46 0 17 -10 19 -22 19 -145 0 -74 3 -135 8
-136 4 -1 21 -2 38 -4 l30 -2 -1 142 c-1 112 -5 148 -17 167 -15 23 -15 25 3
36 41 26 9 46 -53 34z"/>
<path d="M7950 911 c-6 -11 -24 -15 -69 -13 -34 1 -62 -2 -62 -6 -5 -29 -5
-52 0 -53 3 0 30 -3 60 -5 57 -4 81 -16 81 -43 0 -14 -10 -18 -44 -18 -75 -1
-115 -38 -121 -111 -6 -73 46 -130 103 -116 17 5 18 11 13 56 -1 4 -10 10 -21
13 -23 7 -27 50 -6 78 15 20 76 24 77 5 0 -7 1 -44 2 -83 l2 -70 30 1 c17 1
33 2 36 3 8 1 4 262 -5 289 -4 12 -12 22 -18 22 -7 0 -1 11 12 25 13 14 20 28
17 32 -14 13 -78 9 -87 -6z"/>
<path d="M1288 883 c-41 -26 -47 -55 -45 -203 l2 -135 30 1 c17 1 33 2 36 3 3
1 4 30 3 65 -2 63 -1 65 25 68 22 3 26 8 27 36 0 17 -3 33 -8 33 -4 1 -12 3
-18 4 -5 1 -15 3 -20 4 -6 0 -8 15 -5 33 7 37 4 34 30 42 43 12 50 -6 52 -131
1 -65 2 -127 2 -138 1 -16 8 -20 36 -21 l35 -1 0 146 c0 156 -5 174 -57 200
-32 16 -94 13 -125 -6z"/>
<path d="M1520 723 l0 -179 53 1 c49 0 52 2 55 29 3 21 -1 29 -17 33 -19 5
-20 12 -18 116 2 96 4 110 19 113 10 1 28 -6 40 -16 20 -16 23 -28 24 -106 1
-49 2 -97 3 -107 2 -28 47 -67 78 -67 16 0 38 7 50 15 13 9 23 11 25 4 5 -16
68 -23 69 -7 1 7 2 87 3 177 1 174 0 179 -48 167 -23 -6 -24 -7 -23 -136 0
-138 -6 -160 -48 -160 -31 0 -35 16 -35 126 0 141 -21 165 -152 171 l-78 4 0
-178z"/>
<path d="M2086 891 c-9 -14 -4 -341 5 -342 12 -2 47 -2 57 0 4 1 7 79 7 174
l-1 172 -32 2 c-18 1 -34 -2 -36 -6z"/>
<path d="M2214 888 c-6 -9 -8 -158 -5 -304 1 -40 2 -40 36 -40 l35 1 0 137 c0
127 1 138 21 151 27 19 59 10 60 -17 1 -11 2 -73 3 -138 0 -64 4 -120 8 -124
5 -4 21 -8 37 -9 l29 -2 -3 151 c-3 179 0 161 -25 186 -24 24 -77 26 -108 4
-18 -12 -22 -13 -22 -1 0 17 -56 21 -66 5z"/>
<path d="M2543 890 c-48 -19 -57 -52 -58 -201 0 -87 4 -139 10 -140 61 -7 60
-8 61 60 0 54 4 66 20 72 10 3 22 5 27 2 4 -2 7 11 7 30 0 34 -20 54 -41 41
-5 -3 -9 11 -9 30 0 35 10 48 41 53 35 5 42 -24 42 -158 0 -71 4 -129 8 -130
12 -2 47 -2 57 0 4 1 7 67 7 148 l-1 146 -34 29 c-36 29 -90 37 -137 18z"/>
<path d="M2908 893 c-3 -4 -4 -74 -3 -155 1 -141 2 -149 25 -173 26 -28 61
-32 102 -11 22 12 27 12 32 1 5 -13 42 -15 61 -3 8 5 12 287 6 340 -1 4 -16 7
-33 5 l-33 -3 -2 -133 c-2 -141 -8 -161 -49 -161 -32 0 -38 25 -38 169 l-1
125 -32 3 c-17 2 -33 0 -35 -4z"/>
<path d="M3330 867 l0 -32 62 -2 c47 -1 65 -5 75 -19 21 -29 15 -39 -26 -40
-84 -2 -131 -46 -131 -121 0 -40 31 -102 52 -104 7 -1 25 -2 41 -3 24 -3 27 0
27 29 0 23 -5 34 -18 38 -24 6 -33 39 -18 69 8 17 21 24 48 26 l37 3 3 -83 3
-83 33 -1 c17 -1 32 4 33 10 1 17 1 196 0 238 -1 26 -10 47 -29 69 -27 30 -33
32 -110 35 l-82 2 0 -31z"/>
<path d="M3645 891 c-57 -24 -69 -114 -19 -144 10 -6 8 -15 -11 -42 -30 -45
-27 -98 9 -133 22 -22 34 -26 103 -27 43 -1 84 0 91 3 9 3 12 48 12 177 l0
173 -35 0 c-19 0 -35 -5 -36 -11 0 -7 -1 -30 -1 -52 1 -64 -5 -73 -39 -69 -41
5 -49 11 -49 39 0 14 7 26 18 30 27 8 23 59 -3 62 -11 1 -29 -2 -40 -6z m113
-235 c2 -50 -12 -60 -60 -42 -21 8 -28 17 -28 36 0 34 17 50 55 50 31 0 32 -2
33 -44z"/>
<path d="M4138 893 c-3 -4 -3 -14 -2 -20 1 -7 2 -19 3 -26 0 -8 11 -13 24 -12
31 3 63 -13 76 -39 6 -11 12 -73 13 -136 l3 -114 35 -1 34 0 -1 131 c-2 183
-20 213 -130 221 -28 2 -53 0 -55 -4z"/>
<path d="M4415 889 c-76 -21 -74 -104 4 -167 106 -85 109 -112 14 -114 -57 0
-72 -10 -66 -41 5 -23 8 -24 86 -21 75 1 83 4 105 30 20 23 23 35 19 68 -6 41
-16 53 -111 133 -29 25 -34 52 -11 54 8 1 33 3 55 4 22 1 44 3 48 4 5 0 8 13
7 29 -1 26 -3 27 -61 28 -32 1 -72 -2 -89 -7z"/>
<path d="M4902 737 c3 -155 4 -159 28 -179 19 -16 33 -18 65 -13 22 3 42 10
43 15 5 14 23 12 20 -1 -3 -12 38 -20 60 -12 9 4 12 49 12 179 l0 173 -35 -1
c-19 -1 -36 -6 -38 -12 -2 -6 -3 -63 -2 -126 2 -122 -8 -160 -43 -160 -37 0
-42 20 -42 162 l0 139 -36 -3 -35 -2 3 -159z"/>
<path d="M5181 720 l1 -175 31 -1 c18 0 34 3 37 7 4 6 5 316 1 341 0 4 -17 6
-36 5 l-34 -2 0 -175z"/>
<path d="M5315 890 c-3 -5 -6 -82 -7 -170 -3 -172 -1 -177 47 -176 19 1 20 9
23 138 3 135 3 138 28 154 23 16 26 16 42 0 14 -13 17 -40 18 -149 1 -72 2
-134 3 -137 0 -3 15 -6 31 -6 23 -1 31 3 34 20 4 19 2 233 -2 279 -5 46 -75
72 -123 46 -12 -6 -25 -7 -32 -1 -16 11 -55 13 -62 2z"/>
<path d="M5879 887 c-4 -52 0 -327 5 -335 3 -6 19 -9 34 -8 l27 3 3 176 2 175
-35 0 c-19 0 -35 -5 -36 -11z"/>
<path d="M5986 890 c-2 -3 -3 -81 -2 -175 1 -187 -4 -172 59 -166 9 1 12 40
11 169 -1 92 -2 170 -3 175 -1 8 -61 6 -65 -3z"/>
<path d="M6123 887 c-9 -15 -12 -47 -4 -48 3 -1 29 -3 56 -5 74 -6 74 -6 81
-28 9 -27 6 -30 -40 -33 -78 -7 -117 -46 -119 -117 -1 -43 21 -94 43 -101 42
-13 64 -14 72 -2 13 21 9 36 -17 59 -46 40 -21 98 42 98 l31 0 -3 -80 c-2 -56
0 -80 8 -81 7 -1 23 -2 37 -3 l25 -1 2 125 c2 139 -7 183 -44 207 -31 21 -158
28 -170 10z"/>
<path d="M6514 887 c-2 -7 -3 -86 -2 -176 l3 -164 27 -3 c15 -1 31 2 35 9 3 6
6 70 6 143 -1 144 3 153 54 131 28 -12 29 -20 28 -159 0 -103 2 -117 17 -122
10 -2 27 -2 37 1 18 4 19 16 20 134 2 147 -9 182 -62 203 -43 17 -156 19 -163
3z"/>
<path d="M6775 892 c-12 -8 -18 -52 -7 -53 106 -12 112 -21 112 -182 l0 -112
35 -1 c40 -2 37 -14 36 164 -1 110 -14 152 -52 172 -25 14 -110 22 -124 12z"/>
<path d="M7046 889 c-36 -10 -55 -36 -56 -76 0 -33 21 -59 103 -131 60 -53 49
-74 -38 -74 -44 -1 -54 -4 -59 -20 -10 -39 1 -44 85 -43 97 2 120 18 125 86 3
45 -2 51 -104 142 -31 28 -42 56 -22 58 6 1 34 2 63 3 54 1 57 5 48 58 -1 9
-107 7 -145 -3z"/>
<path d="M7531 877 c-12 -31 1 -41 61 -43 71 -3 98 -33 98 -109 0 -68 -15
-101 -51 -114 -35 -12 -39 -7 -39 45 0 37 3 42 20 39 11 -2 20 -1 21 3 6 40 4
62 -5 63 -50 7 -102 3 -106 -8 -3 -6 -4 -56 -2 -111 l3 -99 77 2 c128 3 156
35 155 180 0 33 -7 77 -16 97 -22 52 -55 70 -138 74 -64 3 -71 1 -78 -19z"/>
<path d="M8062 865 c1 -26 5 -31 27 -32 53 -1 58 -4 71 -29 10 -17 14 -62 15
-132 0 -59 4 -112 8 -119 4 -6 20 -10 35 -9 l27 3 3 124 c3 130 -5 169 -41
202 -21 18 -26 19 -99 22 -47 2 -47 2 -46 -30z"/>
<path d="M8326 883 c-13 -7 -28 -23 -32 -35 -16 -47 -4 -72 67 -138 38 -36 69
-71 69 -77 0 -15 -35 -26 -90 -27 -43 -1 -45 -2 -45 -31 l0 -29 73 -1 c84 -1
131 19 134 57 0 13 2 30 3 38 3 30 -26 70 -80 110 -53 39 -70 72 -42 82 6 3
33 4 60 3 26 -1 48 2 48 7 7 53 8 53 -68 54 -41 0 -82 -5 -97 -13z"/>
<path d="M1960 860 c-23 -23 -25 -40 -7 -62 21 -26 46 -29 67 -8 23 23 26 53
8 67 -28 21 -49 22 -68 3z"/>
<path d="M6410 873 c-27 -6 -42 -40 -29 -66 16 -29 27 -36 50 -30 30 8 50 42
38 64 -12 22 -39 37 -59 32z"/>
<path d="M1959 649 c-25 -25 -24 -43 2 -68 20 -18 24 -19 50 -5 33 17 39 53
13 75 -24 20 -44 19 -65 -2z"/>
<path d="M6396 655 c-22 -16 -25 -63 -5 -76 8 -5 23 -9 35 -9 48 0 63 68 19
88 -31 14 -26 15 -49 -3z"/>
<path d="M1241 301 c-25 -25 -17 -57 20 -77 40 -20 39 -48 -1 -42 -24 4 -30 1
-30 -14 0 -14 8 -18 33 -18 38 0 66 25 61 55 -3 19 -11 27 -50 51 -23 13 -10
34 21 34 18 0 23 4 19 15 -8 21 -50 19 -73 -4z"/>
<path d="M1393 310 c-76 -31 -43 -166 39 -158 45 4 49 28 5 28 -28 0 -37 5
-43 23 -11 32 -11 39 0 65 8 20 16 23 43 20 26 -3 33 -1 31 11 -4 19 -43 24
-75 11z"/>
<path d="M1497 312 c-2 -4 -3 -41 -3 -82 1 -63 4 -75 19 -78 14 -3 17 4 17 32
0 36 0 36 47 36 4 0 7 -15 7 -33 1 -21 6 -32 16 -32 12 0 15 15 15 80 0 64 -4
80 -15 80 -8 0 -16 -9 -16 -20 -1 -11 -2 -26 -3 -32 -1 -7 -12 -13 -26 -13
-21 0 -25 5 -25 29 0 26 -24 51 -33 33z"/>
<path d="M1675 295 c-63 -62 -1 -170 80 -139 17 7 42 52 39 72 -1 6 -2 20 -3
30 -2 28 -39 62 -67 62 -14 0 -36 -11 -49 -25z m75 -24 c23 -43 6 -91 -32 -91
-22 0 -36 26 -33 63 3 45 46 63 65 28z"/>
<path d="M1862 310 c-43 -18 -52 -100 -14 -142 20 -24 74 -23 96 1 28 31 28
95 0 126 -24 26 -44 30 -82 15z m64 -48 c17 -34 3 -76 -25 -80 -39 -6 -55 31
-37 86 10 30 46 26 62 -6z"/>
<path d="M2005 308 c-3 -7 -4 -44 -2 -83 l2 -70 43 -3 c33 -2 42 0 42 12 0 11
-9 16 -28 16 -27 0 -28 2 -29 50 -2 83 -3 90 -13 90 -6 0 -13 -6 -15 -12z"/>
<path d="M2282 313 c-15 -6 -39 -53 -36 -70 1 -7 2 -22 3 -33 2 -29 37 -60 69
-60 42 1 64 23 69 74 5 38 2 48 -20 70 -24 24 -55 31 -85 19z m57 -32 c31 -20
17 -101 -17 -101 -27 0 -42 20 -42 55 0 46 26 67 59 46z"/>
<path d="M2425 235 c0 -64 4 -80 15 -80 10 0 15 10 15 27 1 30 10 43 31 43 23
0 21 20 -3 23 -12 2 -24 10 -27 18 -7 17 17 29 40 20 11 -4 14 -1 12 11 -2 13
-14 17 -43 18 l-40 1 0 -81z"/>
<path d="M2683 313 c-9 -3 -13 -30 -13 -84 0 -64 3 -79 15 -79 17 0 16 -2 18
93 2 72 0 77 -20 70z"/>
<path d="M2745 309 c-3 -4 -5 -42 -4 -84 1 -56 5 -75 15 -75 13 0 19 37 15 95
-1 11 11 -5 27 -35 19 -37 34 -55 47 -55 17 0 19 8 20 73 0 47 -5 77 -12 84
-17 14 -25 -8 -20 -55 6 -50 -7 -47 -29 7 -18 42 -47 65 -59 45z"/>
<path d="M2907 306 c-2 -6 -3 -42 -3 -81 1 -55 4 -70 16 -70 9 0 16 10 16 23
1 12 2 28 3 35 0 8 10 13 21 13 27 -1 26 18 -1 24 -12 3 -23 14 -25 24 -2 13
2 17 16 13 20 -5 48 8 37 19 -12 12 -76 12 -80 0z"/>
<path d="M3040 302 c-32 -26 -38 -90 -10 -124 50 -64 133 -15 124 72 -7 62
-67 90 -114 52z m76 -41 c9 -17 9 -32 2 -53 -8 -23 -15 -29 -36 -26 -34 4 -48
52 -26 86 18 28 44 25 60 -7z"/>
<path d="M3200 313 c-11 -3 -15 -17 -13 -61 1 -31 2 -67 2 -79 1 -40 31 -28
31 12 0 44 16 45 34 2 7 -19 21 -34 30 -34 20 0 20 -1 1 44 -11 25 -12 40 -5
47 13 13 13 53 0 61 -13 8 -60 13 -80 8z m49 -32 c16 -10 6 -31 -15 -31 -8 0
-14 9 -14 20 0 22 7 25 29 11z"/>
<path d="M3340 314 c-21 -6 -16 -164 6 -164 10 0 14 15 15 58 l0 57 17 -55
c22 -68 44 -76 60 -22 7 22 12 47 12 57 0 10 3 15 7 11 4 -4 8 -28 8 -54 0
-35 4 -47 15 -47 12 0 15 15 15 78 0 44 -3 81 -8 84 -23 14 -46 -11 -59 -65
l-15 -57 -19 63 c-10 34 -23 61 -29 61 -5 -1 -17 -3 -25 -5z"/>
<path d="M3584 312 c-19 -12 -64 -151 -51 -159 6 -3 17 3 25 15 18 28 58 29
72 2 6 -11 18 -20 26 -20 17 0 16 6 -21 105 -23 61 -32 70 -51 57z m26 -79 c0
-7 -9 -13 -20 -13 -17 0 -18 3 -8 25 8 19 14 22 20 13 4 -7 8 -19 8 -25z"/>
<path d="M3683 307 c-7 -11 17 -28 29 -21 4 3 8 -27 8 -65 0 -56 3 -71 15 -71
12 0 15 15 15 71 0 66 1 71 20 66 14 -4 20 0 20 12 0 14 -10 17 -51 17 -28 0
-53 -4 -56 -9z"/>
<path d="M3824 312 c-5 -4 -9 -41 -9 -82 0 -63 3 -75 18 -78 15 -3 17 6 17 77
0 78 -6 97 -26 83z"/>
<path d="M3906 301 c-49 -55 -22 -151 44 -151 39 0 69 29 74 70 4 38 -17 89
-37 92 -48 6 -68 3 -81 -11z m72 -23 c13 -13 16 -56 6 -82 -7 -18 -49 -22 -59
-6 -32 53 13 128 53 88z"/>
<path d="M4060 234 c0 -68 3 -84 15 -84 12 0 15 13 16 58 l0 57 26 -57 c18
-41 31 -58 44 -58 17 0 19 9 19 85 0 71 -2 83 -15 79 -11 -4 -15 -21 -15 -58
l-1 -51 -27 54 c-16 32 -34 56 -44 57 -16 2 -18 -8 -18 -82z"/>
<path d="M4395 307 c-2 -7 -15 -42 -29 -79 -18 -48 -22 -70 -14 -74 7 -4 18 2
26 14 18 28 58 29 72 2 10 -19 40 -28 40 -12 0 4 -13 41 -28 81 -19 49 -35 75
-46 77 -10 1 -19 -3 -21 -9z m25 -87 c-20 -12 -22 -7 -14 26 7 28 7 28 17 5 8
-17 7 -25 -3 -31z"/>
<path d="M4517 312 c-2 -4 -3 -41 -2 -82 1 -57 5 -75 15 -75 10 0 15 15 18 45
5 67 6 68 29 9 14 -38 26 -55 41 -57 19 -3 20 2 19 79 -2 56 -6 84 -14 87 -13
4 -17 -18 -14 -83 1 -27 -2 -24 -27 24 -24 47 -55 73 -65 53z"/>
<path d="M4687 313 c-4 -3 -7 -42 -7 -85 l0 -78 30 0 c57 0 101 39 95 85 -5
35 -19 65 -33 69 -35 11 -79 15 -85 9z m75 -47 c12 -17 9 -61 -4 -74 -7 -7
-20 -12 -30 -12 -15 0 -18 9 -18 56 0 53 1 55 23 48 12 -4 25 -12 29 -18z"/>
<path d="M4996 299 c-21 -16 -26 -29 -26 -62 1 -55 19 -77 69 -84 33 -5 41 -3
41 11 0 11 -9 16 -29 16 -33 0 -41 8 -47 49 -6 34 18 63 50 60 35 -2 39 0 26
16 -17 21 -53 19 -84 -6z"/>
<path d="M5132 300 c-53 -49 -21 -150 47 -150 32 0 44 8 60 37 44 84 -41 174
-107 113z m73 -26 c26 -27 9 -94 -24 -94 -26 0 -41 20 -41 55 0 51 33 71 65
39z"/>
<path d="M5287 312 c-1 -4 -3 -41 -2 -82 0 -59 3 -75 15 -75 12 0 15 12 13 54
-2 62 8 57 27 -12 17 -63 37 -59 60 13 l18 55 1 -57 c1 -45 4 -58 16 -58 13 0
15 14 13 82 -3 75 -5 82 -25 83 -17 1 -24 -7 -34 -44 -18 -69 -22 -70 -39 -12
-12 42 -20 55 -37 57 -12 2 -24 0 -26 -4z"/>
<path d="M5503 312 c-7 -4 -11 -37 -11 -85 0 -67 2 -78 17 -75 12 3 16 14 15
51 -1 26 2 45 6 42 6 -4 21 -51 24 -80 1 -5 9 -11 18 -13 13 -3 21 11 35 55
l18 58 3 -57 c2 -43 7 -58 18 -58 12 0 14 15 12 83 -3 85 -2 84 -48 78 -5 0
-10 -11 -10 -23 -1 -13 -7 -36 -14 -53 l-12 -29 -14 49 c-12 45 -25 65 -40 65
-3 0 -10 -4 -17 -8z"/>
<path d="M5706 313 c-14 -14 -6 -131 10 -147 20 -20 68 -20 88 0 22 22 23 151
1 151 -15 0 -18 -12 -17 -72 1 -46 -8 -65 -28 -65 -23 0 -30 19 -30 80 0 46
-9 67 -24 53z"/>
<path d="M5867 314 c-4 -4 -7 -43 -7 -86 0 -63 3 -78 15 -78 12 0 15 13 16 58
l0 57 26 -57 c18 -41 31 -58 44 -58 19 0 21 9 21 70 0 85 -2 99 -17 94 -11 -4
-15 -21 -15 -58 l-1 -51 -27 55 c-26 53 -41 67 -55 54z"/>
<path d="M6020 235 c0 -69 3 -85 15 -85 12 0 15 15 15 79 0 61 -3 80 -15 85
-13 4 -15 -8 -15 -79z"/>
<path d="M6130 313 c-31 -13 -44 -37 -44 -81 0 -34 5 -49 23 -63 29 -23 91
-26 91 -4 0 10 -10 15 -29 15 -34 0 -53 20 -53 55 0 37 21 57 54 53 22 -4 28
-1 26 11 -3 17 -42 24 -68 14z"/>
<path d="M6260 286 c-7 -17 -20 -52 -30 -78 -10 -25 -16 -49 -12 -52 12 -12
30 -5 35 14 3 13 14 20 31 20 15 0 30 -8 36 -20 10 -19 41 -29 39 -12 0 4 -12
40 -27 81 -31 84 -53 98 -72 47z m38 -61 c-2 -9 -8 -11 -15 -7 -7 5 -10 17 -6
31 5 20 7 21 15 7 5 -9 8 -23 6 -31z"/>
<path d="M6373 307 c-7 -11 18 -28 29 -21 4 3 8 -27 8 -65 0 -54 3 -71 14 -71
18 0 22 14 21 83 0 47 3 57 17 57 17 0 36 19 21 21 -34 6 -106 3 -110 -4z"/>
<path d="M6510 236 c0 -71 3 -86 15 -86 13 0 15 14 13 82 -2 54 -7 83 -15 86
-10 3 -13 -18 -13 -82z"/>
<path d="M6599 301 c-33 -26 -32 -106 1 -133 56 -46 122 -3 114 75 -6 70 -65
99 -115 58z m75 -32 c16 -23 12 -69 -7 -81 -36 -23 -66 12 -58 67 6 38 42 46
65 14z"/>
<path d="M6763 313 c-9 -3 -13 -30 -13 -84 0 -64 3 -79 15 -79 11 0 15 13 16
58 l1 57 26 -57 c26 -55 54 -75 64 -45 6 18 2 146 -5 153 -14 14 -27 -10 -24
-47 5 -57 -6 -56 -33 1 -13 28 -26 50 -29 49 -3 0 -12 -3 -18 -6z"/>
<path d="M7033 307 c-7 -11 1 -18 24 -21 15 -3 18 -12 18 -67 0 -50 3 -64 15
-64 12 0 16 15 18 68 3 59 5 67 22 67 19 0 29 19 13 21 -35 6 -105 3 -110 -4z"/>
<path d="M7179 310 c-1 -3 -2 -40 -3 -82 l-1 -78 47 0 c38 0 46 3 42 15 -4 8
-19 15 -35 15 -25 0 -27 2 -20 23 5 14 16 22 30 21 12 -1 21 5 21 12 0 8 -11
14 -25 14 -37 0 -35 38 3 42 41 5 28 23 -18 23 -22 0 -41 -2 -41 -5z"/>
<path d="M7340 313 c-30 -12 -42 -35 -43 -80 0 -36 4 -50 22 -64 29 -23 91
-26 91 -4 0 10 -10 15 -28 15 -37 0 -52 17 -52 57 0 36 28 59 62 50 14 -4 18
-1 16 11 -3 18 -41 26 -68 15z"/>
<path d="M7446 313 c-3 -3 -6 -42 -6 -85 0 -63 3 -78 15 -78 10 0 15 11 15 35
0 19 5 36 10 36 42 6 45 4 46 -31 0 -23 5 -35 15 -35 11 0 15 18 17 74 2 42
-2 79 -7 84 -15 15 -23 3 -25 -32 -1 -27 -5 -31 -28 -31 -24 0 -28 4 -28 29 0
30 -12 46 -24 34z"/>
<path d="M7607 314 c-4 -4 -7 -43 -7 -86 0 -63 3 -78 15 -78 12 0 15 13 16 58
l0 57 26 -57 c18 -41 31 -58 44 -58 17 0 19 9 19 85 0 71 -2 83 -15 79 -11 -4
-15 -21 -16 -58 l0 -51 -27 54 c-26 54 -41 68 -55 55z"/>
<path d="M7797 313 c-45 -12 -56 -111 -15 -145 54 -46 125 1 115 77 -8 59 -43
83 -100 68z m51 -32 c16 -10 22 -60 10 -83 -5 -10 -20 -18 -33 -18 -18 0 -26
7 -32 28 -15 58 15 99 55 73z"/>
<path d="M7942 311 c-7 -4 -11 -33 -9 -81 l2 -75 43 -3 c33 -2 42 0 42 12 0
11 -9 16 -28 16 -28 0 -28 0 -27 66 1 67 -3 78 -23 65z"/>
<path d="M8070 302 c-13 -10 -23 -33 -27 -57 -10 -77 61 -123 118 -76 32 26
31 107 -2 133 -27 23 -61 23 -89 0z m68 -24 c18 -18 14 -73 -6 -91 -36 -33
-74 27 -50 79 12 26 37 31 56 12z"/>
<path d="M8235 288 c-48 -57 -12 -138 61 -138 22 0 36 6 42 18 8 14 9 27 3 74
-2 13 -61 5 -61 -9 0 -7 7 -13 15 -13 17 0 21 -35 5 -45 -5 -3 -21 5 -34 18
-43 43 -10 106 51 94 18 -3 23 0 21 12 -2 11 -15 16 -41 17 -30 1 -43 -5 -62
-28z"/>
<path d="M8376 311 c-3 -4 6 -26 20 -50 13 -24 24 -58 24 -77 0 -24 5 -34 15
-34 10 0 15 10 15 30 0 17 12 53 26 81 14 28 23 53 21 55 -8 8 -37 -8 -37 -21
0 -7 -7 -18 -15 -25 -12 -10 -17 -8 -26 13 -12 27 -35 42 -43 28z"/>
</g>
</svg>
